<svg width="338" height="332" viewBox="0 0 338 332" fill="none" xmlns="http://www.w3.org/2000/svg">
<path d="M329 5.99988H9V326H329V5.99988Z" fill="white"/>
<path d="M298 37.9999H41V294.5H298V37.9999Z" fill="white"/>
<path d="M169.5 264.747H223.711V270.759H169.5V264.747Z" fill="#C4C4C4"/>
<path d="M169.5 256.732H223.711V262.744H169.5V256.732Z" fill="#C4C4C4"/>
<path d="M169.5 248.716H223.711V254.728H169.5V248.716Z" fill="#C4C4C4"/>
<path d="M169.5 240.701H223.711V246.712H169.5V240.701Z" fill="#C4C4C4"/>
<path d="M200.119 264.747H223.711V270.759H200.119V264.747Z" fill="#969696"/>
<path d="M200.119 256.732H223.711V262.744H200.119V256.732Z" fill="#969696"/>
<path d="M200.119 248.716H223.711V254.728H200.119V248.716Z" fill="#969696"/>
<path d="M200.119 240.701H223.711V246.712H200.119V240.701Z" fill="#969696"/>
<path d="M281.435 94.1093H253.326L273.404 118.156H301.513L281.435 94.1093Z" fill="#B0B0B0"/>
<path d="M253.326 94.1093L233.248 118.156H273.405L253.326 94.1093Z" fill="#C4C4C4"/>
<path d="M208.155 241.398V215.344H196.1V241.398H208.155Z" stroke="#969696" stroke-width="4"/>
<path fill-rule="evenodd" clip-rule="evenodd" d="M195.206 216.795L207.253 240.842L209.049 239.946L197.002 215.899L195.206 216.795Z" fill="#969696"/>
<path fill-rule="evenodd" clip-rule="evenodd" d="M201.123 216.347V240.394H191.084V216.347H201.123ZM203.131 214.344H189.076V242.398H203.131V214.344Z" fill="#C4C4C4"/>
<path fill-rule="evenodd" clip-rule="evenodd" d="M189.182 216.795L201.229 240.842L203.025 239.946L190.978 215.899L189.182 216.795Z" fill="#C4C4C4"/>
<path fill-rule="evenodd" clip-rule="evenodd" d="M207.147 188.293V212.34H197.108V188.293H207.147ZM209.155 186.289H195.1V214.344H209.155V186.289Z" fill="#969696"/>
<path fill-rule="evenodd" clip-rule="evenodd" d="M195.206 188.741L207.253 212.788L209.049 211.891L197.002 187.845L195.206 188.741Z" fill="#969696"/>
<path fill-rule="evenodd" clip-rule="evenodd" d="M201.123 188.293V212.34H191.084V188.293H201.123ZM203.131 186.289H189.076V214.344H203.131V186.289Z" fill="#C4C4C4"/>
<path fill-rule="evenodd" clip-rule="evenodd" d="M189.182 188.741L201.229 212.788L203.025 211.891L190.978 187.845L189.182 188.741Z" fill="#C4C4C4"/>
<path fill-rule="evenodd" clip-rule="evenodd" d="M207.147 160.238V184.285H197.108V160.238H207.147ZM209.155 158.234H195.1V186.289H209.155V158.234Z" fill="#969696"/>
<path fill-rule="evenodd" clip-rule="evenodd" d="M195.206 160.686L207.253 184.733L209.049 183.837L197.002 159.79L195.206 160.686Z" fill="#969696"/>
<path fill-rule="evenodd" clip-rule="evenodd" d="M201.123 160.238V184.285H191.084V160.238H201.123ZM203.131 158.234H189.076V186.289H203.131V158.234Z" fill="#C4C4C4"/>
<path fill-rule="evenodd" clip-rule="evenodd" d="M189.182 160.686L201.229 184.733L203.025 183.837L190.978 159.79L189.182 160.686Z" fill="#C4C4C4"/>
<path fill-rule="evenodd" clip-rule="evenodd" d="M207.147 132.183V156.23H197.108V132.183H207.147ZM209.155 130.179H195.1V158.234H209.155V130.179Z" fill="#969696"/>
<path fill-rule="evenodd" clip-rule="evenodd" d="M195.206 132.631L207.253 156.678L209.049 155.782L197.002 131.735L195.206 132.631Z" fill="#969696"/>
<path fill-rule="evenodd" clip-rule="evenodd" d="M201.123 132.183V156.23H191.084V132.183H201.123ZM203.131 130.179H189.076V158.234H203.131V130.179Z" fill="#C4C4C4"/>
<path fill-rule="evenodd" clip-rule="evenodd" d="M189.182 132.631L201.229 156.678L203.025 155.782L190.978 131.735L189.182 132.631Z" fill="#C4C4C4"/>
<path fill-rule="evenodd" clip-rule="evenodd" d="M207.147 104.129V128.176H197.108V104.129H207.147ZM209.155 102.125H195.1V130.179H209.155V102.125Z" fill="#969696"/>
<path fill-rule="evenodd" clip-rule="evenodd" d="M195.206 104.577L207.253 128.624L209.049 127.727L197.002 103.681L195.206 104.577Z" fill="#969696"/>
<path fill-rule="evenodd" clip-rule="evenodd" d="M201.123 104.129V128.176H191.084V104.129H201.123ZM203.131 102.125H189.076V130.179H203.131V102.125Z" fill="#C4C4C4"/>
<path fill-rule="evenodd" clip-rule="evenodd" d="M189.182 104.577L201.229 128.624L203.025 127.727L190.978 103.681L189.182 104.577Z" fill="#C4C4C4"/>
<path fill-rule="evenodd" clip-rule="evenodd" d="M207.147 76.0738V100.121H197.108V76.0738H207.147ZM209.155 74.0703H195.1V102.125H209.155V74.0703Z" fill="#969696"/>
<path fill-rule="evenodd" clip-rule="evenodd" d="M195.206 76.5224L207.253 100.569L209.049 99.6728L197.002 75.6259L195.206 76.5224Z" fill="#969696"/>
<path fill-rule="evenodd" clip-rule="evenodd" d="M201.123 76.0738V100.121H191.084V76.0738H201.123ZM203.131 74.0703H189.076V102.125H203.131V74.0703Z" fill="#C4C4C4"/>
<path fill-rule="evenodd" clip-rule="evenodd" d="M189.182 76.5224L201.229 100.569L203.025 99.6728L190.978 75.6259L189.182 76.5224Z" fill="#C4C4C4"/>
<path d="M203.131 74.0703H225.217V94.1094H203.131V74.0703Z" fill="#C4C4C4"/>
<path d="M213.17 74.0703H225.217V94.1094H213.17V74.0703Z" fill="#B0B0B0"/>
<path fill-rule="evenodd" clip-rule="evenodd" d="M262.361 59.0407H272.4V87.5962H262.361V59.0407ZM273.404 58.0387V88.5982H261.357V58.0387H273.404Z" fill="black"/>
<path d="M267.381 79.581C264.054 79.581 261.358 76.8895 261.358 73.5693C261.358 70.2491 264.054 67.5576 267.381 67.5576C270.708 67.5576 273.405 70.2491 273.405 73.5693C273.405 76.8895 270.708 79.581 267.381 79.581Z" fill="#C4C4C4"/>
<path d="M267.381 76.5752C265.718 76.5752 264.369 75.2294 264.369 73.5693C264.369 71.9092 265.718 70.5635 267.381 70.5635C269.044 70.5635 270.393 71.9092 270.393 73.5693C270.393 75.2294 269.044 76.5752 267.381 76.5752Z" fill="white"/>
<path fill-rule="evenodd" clip-rule="evenodd" d="M190.582 72.0662H166.488V60.0427H190.582V72.0662ZM192.59 74.0702V58.0387H164.48V74.0702H192.59Z" fill="#969696"/>
<path fill-rule="evenodd" clip-rule="evenodd" d="M190.084 58.3138L165.99 72.0553L166.986 73.7948L191.08 60.0538L190.084 58.3138Z" fill="#969696"/>
<path fill-rule="evenodd" clip-rule="evenodd" d="M183.052 72.0662H158.959V60.0427H183.052V72.0662ZM185.06 74.0702V58.0387H156.951V74.0702H185.06Z" fill="#C4C4C4"/>
<path fill-rule="evenodd" clip-rule="evenodd" d="M182.554 58.3143L158.461 72.0553L159.457 73.7948L183.551 60.0538L182.554 58.3143Z" fill="#C4C4C4"/>
<path fill-rule="evenodd" clip-rule="evenodd" d="M218.692 72.0662H194.598V60.0427H218.692V72.0662ZM220.699 74.0702V58.0387H192.59V74.0702H220.699Z" fill="#969696"/>
<path fill-rule="evenodd" clip-rule="evenodd" d="M218.194 58.3138L194.1 72.0553L195.096 73.7948L219.19 60.0538L218.194 58.3138Z" fill="#969696"/>
<path fill-rule="evenodd" clip-rule="evenodd" d="M211.162 72.0662H187.069V60.0427H211.162V72.0662ZM213.17 74.0702V58.0387H185.061V74.0702H213.17Z" fill="#C4C4C4"/>
<path fill-rule="evenodd" clip-rule="evenodd" d="M210.664 58.3143L186.571 72.0553L187.567 73.7948L211.66 60.0538L210.664 58.3143Z" fill="#C4C4C4"/>
<path fill-rule="evenodd" clip-rule="evenodd" d="M246.801 72.0662H222.707V60.0427H246.801V72.0662ZM248.808 74.0702V58.0387H220.699V74.0702H248.808Z" fill="#969696"/>
<path fill-rule="evenodd" clip-rule="evenodd" d="M246.303 58.3138L222.209 72.0553L223.205 73.7948L247.299 60.0538L246.303 58.3138Z" fill="#969696"/>
<path fill-rule="evenodd" clip-rule="evenodd" d="M239.271 72.0662H215.177V60.0427H239.271V72.0662ZM241.279 74.0702V58.0387H213.17V74.0702H241.279Z" fill="#C4C4C4"/>
<path fill-rule="evenodd" clip-rule="evenodd" d="M238.773 58.3143L214.679 72.0553L215.676 73.7948L239.769 60.0538L238.773 58.3143Z" fill="#C4C4C4"/>
<path fill-rule="evenodd" clip-rule="evenodd" d="M274.91 72.0662H250.817V60.0427H274.91V72.0662ZM276.918 74.0702V58.0387H248.809V74.0702H276.918Z" fill="#969696"/>
<path fill-rule="evenodd" clip-rule="evenodd" d="M274.412 58.3138L250.319 72.0553L251.315 73.7948L275.409 60.0538L274.412 58.3138Z" fill="#969696"/>
<path fill-rule="evenodd" clip-rule="evenodd" d="M267.381 72.0662H243.287V60.0427H267.381V72.0662ZM269.389 74.0702V58.0387H241.28V74.0702H269.389Z" fill="#C4C4C4"/>
<path fill-rule="evenodd" clip-rule="evenodd" d="M266.883 58.3143L242.789 72.0553L243.785 73.7948L267.879 60.0538L266.883 58.3143Z" fill="#C4C4C4"/>
<path fill-rule="evenodd" clip-rule="evenodd" d="M303.019 72.0662H278.926V60.0427H303.019V72.0662ZM305.027 74.0702V58.0387H276.918V74.0702H305.027Z" fill="#969696"/>
<path fill-rule="evenodd" clip-rule="evenodd" d="M302.521 58.3138L278.428 72.0553L279.424 73.7948L303.517 60.0538L302.521 58.3138Z" fill="#969696"/>
<path fill-rule="evenodd" clip-rule="evenodd" d="M295.49 72.0662H271.396V60.0427H295.49V72.0662ZM297.498 74.0702V58.0387H269.388V74.0702H297.498Z" fill="#C4C4C4"/>
<path fill-rule="evenodd" clip-rule="evenodd" d="M294.992 58.3143L270.898 72.0553L271.894 73.7948L295.988 60.0538L294.992 58.3143Z" fill="#C4C4C4"/>
<path d="M277.42 86.0938H257.342V94.1092L267.381 90.1012L277.42 94.1092V86.0938Z" fill="black"/>
<g opacity="0.3">
<path opacity="0.3" d="M119.305 72.8734H175.524L147.414 96.9204V268.755H91.5091L91.1956 96.9204L119.305 72.8734Z" fill="#B0B0B0"/>
<path opacity="0.3" d="M175.524 72.3723L203.633 96.4193V268.755H147.414V96.4193L175.524 72.3723Z" fill="#C4C4C4"/>
</g>
<path fill-rule="evenodd" clip-rule="evenodd" d="M159.712 96.9203C170.107 96.9203 178.535 88.5093 178.535 78.1338C178.535 67.7583 170.107 59.3473 159.712 59.3473C149.316 59.3473 140.888 67.7583 140.888 78.1338C140.888 88.5093 149.316 96.9203 159.712 96.9203Z" fill="white"/>
<path fill-rule="evenodd" clip-rule="evenodd" d="M159.461 105.991C174.986 105.991 187.571 93.4308 187.571 77.9368C187.571 62.4423 174.986 49.882 159.461 49.882C143.937 49.882 131.352 62.4423 131.352 77.9368C131.352 93.4308 143.937 105.991 159.461 105.991Z" fill="white" fill-opacity="0.01"/>
<path fill-rule="evenodd" clip-rule="evenodd" d="M131.101 77.9368C131.101 62.3043 143.798 49.6315 159.461 49.6315C175.124 49.6315 187.822 62.3043 187.822 77.9368C187.822 93.5693 175.124 106.242 159.461 106.242C143.798 106.242 131.101 93.5693 131.101 77.9368ZM159.461 50.1324C144.075 50.1324 131.603 62.5808 131.603 77.9368C131.603 93.2923 144.075 105.741 159.461 105.741C174.847 105.741 187.32 93.2923 187.32 77.9368C187.32 62.5808 174.847 50.1324 159.461 50.1324Z" fill="white"/>
<path fill-rule="evenodd" clip-rule="evenodd" d="M27.761 5.35092C27.761 5.35092 28.2951 30.1458 58.0568 39.3018C98.6065 51.7765 117.122 52.0631 115.152 50.347C79.7475 19.5047 222.252 78.9323 233.514 67.5803C252.229 48.7156 247.823 39.9845 208.719 40.0367C7.12132 -29.8283 93.8735 20.103 93.5445 26.3737C92.875 39.1191 27.761 5.35092 27.761 5.35092Z" fill="black" fill-opacity="0.1"/>
<path fill-rule="evenodd" clip-rule="evenodd" d="M58.0664 88.7428C56.6803 88.7428 55.5566 87.2813 55.5566 85.4783C55.5566 83.6753 57.0983 87.4658 57.0983 87.4658C57.0983 87.4658 60.576 83.6753 60.576 85.4783C60.576 87.2813 59.4525 88.7428 58.0664 88.7428Z" fill="#D8D8D8"/>
<path d="M217.688 206.634H253.828V268.755H217.688V206.634Z" fill="#939393"/>
<path d="M249.812 238.697H306.031V268.755H249.812V238.697Z" fill="#B0B0B0"/>
<path d="M217.688 206.634H249.812V268.755H217.688V206.634Z" fill="#C4C4C4"/>
<path d="M287.961 238.697H300.008V268.755H287.961V238.697Z" fill="#626262"/>
<path d="M259.852 238.697H275.914V268.755H259.852V238.697Z" fill="#626262"/>
<path d="M295.992 238.697H259.852V176.576H295.992V238.697Z" fill="#939393"/>
<path d="M263.867 206.634H207.648V176.576H263.867V206.634Z" fill="#B0B0B0"/>
<path d="M295.992 238.697H263.867V176.576H295.992V238.697Z" fill="#C4C4C4"/>
<path d="M330.125 268.755H8.875V270.759H330.125V268.755Z" fill="#C4C4C4"/>
<path d="M41 254.728C52.0888 254.728 61.0781 245.756 61.0781 234.689C61.0781 223.621 52.0888 214.65 41 214.65C29.9111 214.65 20.9219 223.621 20.9219 234.689C20.9219 245.756 29.9111 254.728 41 254.728Z" fill="#C4C4C4"/>
<path fill-rule="evenodd" clip-rule="evenodd" d="M175.021 176.576C179.18 176.576 182.551 173.652 182.551 170.046C182.551 166.44 177.926 174.021 177.926 174.021C177.926 174.021 167.492 166.44 167.492 170.046C167.492 173.652 170.863 176.576 175.021 176.576Z" fill="black" fill-opacity="0.38"/>
<path d="M103.242 124.474H47.0234V270.759H103.242V124.474Z" fill="#B0B0B0"/>
<path d="M159.461 124.474H103.242V270.759H159.461V124.474Z" fill="#C4C4C4"/>
<path d="M67.1016 228.677H55.0547V270.759H67.1016V228.677Z" fill="#626262"/>
<path d="M95.2109 228.677H79.1484V270.759H95.2109V228.677Z" fill="#626262"/>
<path d="M67.1016 180.583H55.0547V208.638H67.1016V180.583Z" fill="#626262"/>
<path d="M95.2109 180.583H79.1484V208.638H95.2109V180.583Z" fill="#626262"/>
<path d="M67.1016 132.49H55.0547V160.544H67.1016V132.49Z" fill="#626262"/>
<path d="M95.2109 132.49H79.1484V160.544H95.2109V132.49Z" fill="#626262"/>
<path d="M139.383 180.583H123.321V208.638H139.383V180.583Z" fill="#626262"/>
<path d="M139.383 132.49H123.321V160.544H139.383V132.49Z" fill="#626262"/>
<path d="M163.477 216.654H43.0078V220.662H163.477V216.654Z" fill="#C4C4C4"/>
<path d="M163.477 120.466H43.0078V124.474H163.477V120.466Z" fill="#C4C4C4"/>
<path d="M75.133 96.4193H131.351L103.242 120.466H47.0234L75.133 96.4193Z" fill="#B0B0B0"/>
<path d="M131.351 96.4193L159.461 120.466H103.242L131.351 96.4193Z" fill="#C4C4C4"/>
<path d="M157.453 248.716C168.542 248.716 177.531 239.745 177.531 228.677C177.531 217.61 168.542 208.638 157.453 208.638C146.364 208.638 137.375 217.61 137.375 228.677C137.375 239.745 146.364 248.716 157.453 248.716Z" fill="#626262"/>
<path fill-rule="evenodd" clip-rule="evenodd" d="M326.886 278.634C289.358 285.326 54.9613 300.71 47.0233 299.687C23.9995 296.717 119.42 285.326 69.493 285.326C-7.68963 285.326 21.7023 245.104 69.493 253.755C87.59 257.031 17.7456 240.375 24.154 240.263C24.154 240.263 111.582 245.725 214.772 278.634C226.365 282.332 78.1355 252.577 94.752 257.159C105.001 259.985 128.078 267.639 131.853 269.103C143.645 273.677 160.368 285.326 160.368 285.326C192.868 284.76 334.47 277.282 326.886 278.634Z" fill="#E5E5E5"/>
<path d="M159.461 246.406H155.446V270.954H159.461V246.406Z" fill="#626262"/>
<path opacity="0.8" d="M0 0H338V332H0V0Z" fill="white" fill-opacity="0.4"/>
<path fill-rule="evenodd" clip-rule="evenodd" d="M216.736 124.764L211.159 145.539L211.15 145.548C211.203 147.369 211.064 149.36 210.652 151.487C209.716 154.788 207.264 164.112 206.009 168.905L208.68 174.591L208.722 177.389C208.722 177.389 207.733 177.833 207.415 178.668C207.096 179.504 206.908 182.141 206.908 182.141L204.372 182.78L199.192 179.353L199.139 175.81L200.597 169.345C200.949 164.036 202.057 148.436 203.124 144.986C203.187 144.782 203.335 144.219 203.538 143.451C204.106 141.294 205.101 137.517 205.836 135.511L212.528 106.265C212.528 106.265 212.991 106.12 213.407 106.006L232.087 99.7758L251 106.142L250.987 106.203C251.753 106.572 252.283 107.178 252.283 107.178L258.993 136.952C258.993 136.952 260.724 146.076 258.102 146.919C255.48 147.762 253.34 145.539 253.34 145.539L247.478 123.698L243 146.022L248.963 158.057L247.215 158.053C247.525 158.636 247.829 159.326 248.126 160.099C248.438 160.397 248.719 160.715 248.963 161.052C249.032 161.147 248.914 161.319 248.645 161.552C251.455 169.979 253.5 185.032 253.5 185.032L253.321 229.515C253.781 230.888 254.029 231.839 254.029 231.839V287.197H248.964L241 238.107C241 238.107 240.998 237.156 241.053 235.684L232.5 170.336C232.5 170.336 232.527 170.289 232.579 170.2C231.917 170.522 231.528 170.709 231.528 170.709L230.344 226.871C231.421 229.507 232.029 231.839 232.029 231.839V287.197H226.964L218.028 242.456C218.028 242.456 218.205 238.18 218.807 233.32L211.528 177.734C211.528 177.734 212.907 163.372 215.508 157.983L215 157.982L221 146.022L216.736 124.764Z" fill="#E5A896"/>
<path fill-rule="evenodd" clip-rule="evenodd" d="M233.75 293.944H218.5L226.299 287C226.299 287 228.204 287.706 229.311 287.706C230.417 287.706 232.787 287 232.787 287L233.75 293.944Z" fill="#555277"/>
<path fill-rule="evenodd" clip-rule="evenodd" d="M231.5 290.012L227 287.333L225.226 280.174L232.5 280V287.333L231.5 290.012Z" fill="#EADED5"/>
<path fill-rule="evenodd" clip-rule="evenodd" d="M247 293.944H266.947L254.451 287C254.451 287 252.545 287.706 251.439 287.706C250.333 287.706 247.962 287 247.962 287L247 293.944Z" fill="#555277"/>
<path fill-rule="evenodd" clip-rule="evenodd" d="M249.5 290.012L254 287.333L254.274 280.174L247.5 280L248.5 287.333L249.5 290.012Z" fill="#EADED5"/>
<path fill-rule="evenodd" clip-rule="evenodd" d="M248 155.075C248 155.075 237.303 156.055 232.285 155.976C226.646 155.887 216.029 154.571 216.029 154.571C219.029 138.257 216.11 127.026 216.11 127.026C216.11 127.026 207.833 125.649 206.623 123.274C207.28 115.5 212.029 106.238 212.029 106.238C212.029 106.238 221.89 101.81 225.059 100.037C227.471 98.6877 232.088 107.875 232.088 107.875C232.088 107.875 235.745 98.5742 238.159 99.8492C241.679 101.708 252 106.265 252 106.265C252 106.265 255.947 114 257.947 123.67C258.199 124.889 248 125.649 248 125.649C249.268 133.024 241.763 138.658 248 155.075Z" fill="#6A2727"/>
<path fill-rule="evenodd" clip-rule="evenodd" d="M236.466 91.4998V101.132C236.466 101.132 231.579 109.381 227.091 101.325L227.484 91.4998H236.466Z" fill="#E5A896"/>
<path fill-rule="evenodd" clip-rule="evenodd" d="M222.359 79.3718C222.359 73.5728 226.501 68.8718 231.609 68.8718C236.717 68.8718 240.859 73.5728 240.859 79.3718C240.859 80.3858 240.732 81.3658 240.496 82.2933C240.698 81.9963 240.939 81.8243 241.196 81.8243C241.916 81.8243 242.5 83.1678 242.5 84.8243C242.5 86.4813 240.613 87.8243 239.893 87.8243C239.766 87.8243 239.663 87.8133 239.579 87.7918C238.663 93.5353 234.674 97.8678 231.772 97.8678C228.889 97.8678 224.936 93.5938 223.984 87.9083C223.951 87.9103 223.915 87.9113 223.877 87.9113C223.157 87.9113 221.27 86.5683 221.27 84.9113C221.27 83.2548 221.854 81.9113 222.574 81.9113C222.593 81.9113 222.613 81.9123 222.632 81.9143C222.454 81.1003 222.359 80.2483 222.359 79.3718Z" fill="#E5A896"/>
<path fill-rule="evenodd" clip-rule="evenodd" d="M218.25 232L217.5 243.25L224.75 280.5H232.75L233.5 187.25L240.125 230.5V242L246.75 280.5H255L254.24 229.25C254.24 229.25 254.636 192.924 254.24 174.827C254.029 165.207 247.41 154.5 247.41 154.5C247.41 154.5 242 155.599 231.529 155.599C221.058 155.599 216.195 154.5 216.195 154.5C216.195 154.5 211 168.13 211 176.097C211 184.065 218.25 232 218.25 232Z" fill="#A93333"/>
<path opacity="0.2" fill-rule="evenodd" clip-rule="evenodd" d="M227.947 82.3738C226.843 82.3738 225.947 81.8413 225.947 81.1838C225.947 80.5268 226.843 79.9938 227.947 79.9938C229.052 79.9938 229.947 80.5268 229.947 81.1838C229.947 81.8413 229.052 82.3738 227.947 82.3738Z" fill="black"/>
<path fill-rule="evenodd" clip-rule="evenodd" d="M227.883 79.6892C227.148 79.6902 226.611 79.7937 226.259 79.8987C226.083 79.9512 225.951 80.0047 225.864 80.0467C225.822 80.0667 225.783 80.0877 225.752 80.1082C225.744 80.1137 225.731 80.1222 225.717 80.1332C225.711 80.1387 225.699 80.1482 225.686 80.1612L225.685 80.1617C225.677 80.1697 225.643 80.2027 225.615 80.2552C225.602 80.2812 225.571 80.3467 225.572 80.4372C225.574 80.5497 225.627 80.6612 225.726 80.7332C225.804 80.7907 225.882 80.8017 225.914 80.8042C225.951 80.8077 225.981 80.8047 225.997 80.8027C226.047 80.7962 226.086 80.7802 226.092 80.7777C226.092 80.7777 226.092 80.7777 226.093 80.7772C226.126 80.7642 226.156 80.7467 226.183 80.7257C226.185 80.7247 226.187 80.7237 226.189 80.7227C226.238 80.6992 226.332 80.6597 226.474 80.6172C226.756 80.5332 227.224 80.4392 227.893 80.4392H227.904L227.915 80.4387C228.562 80.4017 229.209 80.5162 229.805 80.7737C229.995 80.8557 230.215 80.7682 230.298 80.5782C230.38 80.3877 230.292 80.1672 230.102 80.0852C229.403 79.7827 228.643 79.6472 227.883 79.6892Z" fill="black" fill-opacity="0.87"/>
<path fill-rule="evenodd" clip-rule="evenodd" d="M227.947 83.4438C227.395 83.4438 226.947 83.0073 226.947 82.4688C226.947 81.9303 227.395 81.4938 227.947 81.4938C228.499 81.4938 228.947 81.9303 228.947 82.4688C228.947 83.0073 228.499 83.4438 227.947 83.4438Z" fill="#1D1D1B" fill-opacity="0.695171"/>
<path opacity="0.2" fill-rule="evenodd" clip-rule="evenodd" d="M235.947 82.3738C234.843 82.3738 233.947 81.8413 233.947 81.1838C233.947 80.5268 234.843 79.9938 235.947 79.9938C237.052 79.9938 237.947 80.5268 237.947 81.1838C237.947 81.8413 237.052 82.3738 235.947 82.3738Z" fill="black"/>
<path fill-rule="evenodd" clip-rule="evenodd" d="M235.883 79.6892C235.148 79.6902 234.611 79.7937 234.259 79.8987C234.083 79.9512 233.951 80.0047 233.864 80.0467C233.822 80.0667 233.783 80.0877 233.752 80.1082C233.744 80.1137 233.731 80.1222 233.717 80.1332C233.711 80.1387 233.699 80.1482 233.686 80.1612L233.685 80.1617C233.677 80.1697 233.643 80.2027 233.615 80.2552C233.602 80.2812 233.571 80.3467 233.572 80.4372C233.574 80.5497 233.627 80.6612 233.726 80.7332C233.804 80.7907 233.882 80.8017 233.914 80.8042C233.951 80.8077 233.981 80.8047 233.997 80.8027C234.047 80.7962 234.086 80.7802 234.092 80.7777C234.092 80.7777 234.092 80.7777 234.093 80.7772C234.126 80.7642 234.156 80.7467 234.183 80.7257C234.185 80.7247 234.187 80.7237 234.189 80.7227C234.238 80.6992 234.332 80.6597 234.474 80.6172C234.756 80.5332 235.224 80.4392 235.893 80.4392H235.904L235.915 80.4387C236.562 80.4017 237.209 80.5162 237.805 80.7737C237.995 80.8557 238.215 80.7682 238.298 80.5782C238.38 80.3877 238.292 80.1672 238.102 80.0852C237.403 79.7827 236.643 79.6472 235.883 79.6892Z" fill="black" fill-opacity="0.87"/>
<path fill-rule="evenodd" clip-rule="evenodd" d="M235.947 83.4438C235.395 83.4438 234.947 83.0073 234.947 82.4688C234.947 81.9303 235.395 81.4938 235.947 81.4938C236.499 81.4938 236.947 81.9303 236.947 82.4688C236.947 83.0073 236.499 83.4438 235.947 83.4438Z" fill="#1D1D1B" fill-opacity="0.695171"/>
<path opacity="0.1" fill-rule="evenodd" clip-rule="evenodd" d="M230.947 87.8518C230.947 88.6568 231.397 89.3068 231.947 89.3068C232.497 89.3068 232.947 88.6568 232.947 87.8518C232.947 87.0468 232.502 87.8518 231.947 87.8518C231.392 87.8518 230.947 87.0468 230.947 87.8518Z" fill="black"/>
<path fill-rule="evenodd" clip-rule="evenodd" d="M231.583 82.9053C231.583 82.9058 231.583 82.9063 231.947 82.9973L231.583 82.9063C231.566 82.9753 231.569 83.0448 231.588 83.1078C231.59 83.1288 231.592 83.1628 231.595 83.2148C231.605 83.4513 231.617 83.9798 231.617 85.1423C231.617 85.7318 231.831 86.4893 232.026 87.0758C232.125 87.3763 232.225 87.6463 232.298 87.8448L232.301 87.8538C232.332 87.9363 232.357 88.0033 232.375 88.0558C232.341 88.0903 232.29 88.1308 232.226 88.1733C232.156 88.2193 232.084 88.2588 232.028 88.2873C232 88.3013 231.978 88.3118 231.963 88.3188C231.955 88.3223 231.949 88.3253 231.946 88.3268L231.942 88.3283C231.753 88.4108 231.665 88.6313 231.748 88.8213C231.83 89.0113 232.051 89.0988 232.241 89.0163L232.092 88.6723C232.241 89.0163 232.241 89.0163 232.241 89.0163L232.242 89.0158L232.245 89.0143L232.253 89.0108C232.259 89.0078 232.268 89.0038 232.279 88.9988C232.301 88.9888 232.332 88.9738 232.368 88.9558C232.44 88.9193 232.538 88.8658 232.638 88.7998C232.735 88.7358 232.85 88.6498 232.944 88.5458C233.031 88.4493 233.147 88.2863 233.147 88.0723C233.147 88.0258 233.138 87.9873 233.135 87.9758C233.131 87.9573 233.127 87.9403 233.122 87.9263C233.114 87.8983 233.103 87.8663 233.092 87.8338C233.071 87.7723 233.041 87.6908 233.007 87.5993L233.002 87.5853C232.929 87.3868 232.833 87.1273 232.738 86.8398C232.542 86.2503 232.367 85.5973 232.367 85.1423C232.367 83.9798 232.355 83.4358 232.344 83.1808C232.338 83.0638 232.332 82.9818 232.32 82.9258C232.318 82.9138 232.308 82.8718 232.285 82.8258C232.274 82.8043 232.244 82.7483 232.181 82.6993C232.103 82.6378 231.977 82.5928 231.838 82.6358C231.728 82.6698 231.668 82.7428 231.648 82.7688C231.624 82.8013 231.61 82.8308 231.604 82.8448C231.597 82.8613 231.592 82.8753 231.589 82.8838C231.588 82.8888 231.586 82.8928 231.585 82.8963L231.584 82.9018L231.583 82.9038V82.9053Z" fill="black" fill-opacity="0.54"/>
<path fill-rule="evenodd" clip-rule="evenodd" d="M235.32 91.6328C235.3 91.4263 235.116 91.2758 234.91 91.2963C232.94 91.4923 230.955 91.4923 228.984 91.2963C228.778 91.2758 228.594 91.4263 228.574 91.6328C228.554 91.8388 228.704 92.0223 228.91 92.0428C230.93 92.2433 232.965 92.2433 234.984 92.0428C235.19 92.0223 235.341 91.8388 235.32 91.6328Z" fill="black" fill-opacity="0.54"/>
<path fill-rule="evenodd" clip-rule="evenodd" d="M230.928 66.3628C237.946 66.3628 243.186 71.8463 243.186 79.9998C243.186 80.9083 246.109 82.9188 246.109 86.4998C246.109 90.4998 238.173 94.3668 237.34 97.4998C237.273 97.7538 237.68 90.0018 239.294 87.6638C240.864 85.3888 240.244 81.7648 239.294 79.9998C237.379 76.4428 234.245 74.8923 233.688 74.4998C232.894 73.9403 239.469 80.0853 239.11 79.9998C233.682 78.7073 227.59 75.1058 227.106 74.4998C227.102 74.5073 225.251 79.4673 225.249 79.4743C225.5 90.9158 224.518 83.0598 224.375 82.8158C224.128 82.3923 221.531 81.7478 221.531 83.9823C221.531 86.2168 224.378 86.8288 224.375 87.6638C224.368 90.4228 226.149 92.5628 227.106 94.9998C226.76 95.2608 219.417 93.3513 219.417 89.0153C219.417 83.1168 221.489 86.4038 219.417 83.9823C217.345 81.5608 220.09 80.9033 220.09 79.4998C220.09 76.9818 225.143 66.3628 230.928 66.3628Z" fill="#302E4F"/>
<path fill-rule="evenodd" clip-rule="evenodd" d="M233.557 63.5643C239.725 64.2363 241.873 68.8618 241.873 68.8618L243.407 76.7828L220.45 78.1908L220.743 70.1578C220.743 70.1578 222.518 65.2868 228.611 63.8658L228.923 62.6428L233.097 62.3868L233.557 63.5643Z" fill="#FFA800"/>
<path d="M241.557 76.1537C241.557 76.1537 241.091 76.4237 240.497 76.4602C239.903 76.4967 238.316 76.0927 238.316 76.0927L240.099 69.9722L241.174 69.9062L241.557 76.1537Z" fill="#E89900"/>
<path d="M222.209 77.3408C222.209 77.3408 222.705 77.5513 223.298 77.5148C223.892 77.4788 225.418 76.8843 225.418 76.8843L222.901 71.0273L221.826 71.0933L222.209 77.3408Z" fill="#E89900"/>
<path d="M244.921 76.9599C244.921 76.9599 239.156 78.0454 231.989 78.4849C224.823 78.9244 218.969 78.5519 218.969 78.5519L218.917 77.7004L231.806 75.4904L244.868 76.1084L244.921 76.9599Z" fill="#E89900"/>
<path d="M228 95.4998C228 95.8978 232 100.5 236 95.4998" stroke="black" stroke-opacity="0.17" stroke-linecap="round"/>
<path fill-rule="evenodd" clip-rule="evenodd" d="M218.584 155.717L218.587 155.718L218.598 155.719L218.642 155.727C218.681 155.733 218.74 155.743 218.818 155.755C218.973 155.779 219.204 155.814 219.504 155.856C220.103 155.939 220.975 156.051 222.064 156.162C224.243 156.385 227.288 156.607 230.749 156.601C234.213 156.596 237.85 156.374 240.624 156.153C242.01 156.043 243.179 155.933 244.001 155.85C244.412 155.809 244.737 155.775 244.958 155.751C245.068 155.739 245.153 155.729 245.21 155.723L245.275 155.716L245.296 155.713C245.296 155.713 245.32 155.721 245.358 155.737V155.71C245.633 155.712 245.854 155.936 245.854 156.21C245.854 156.211 245.854 156.213 245.853 156.214C245.851 156.472 245.655 156.682 245.404 156.707L245.388 156.709L245.322 156.717C245.263 156.723 245.177 156.733 245.065 156.745C244.842 156.769 244.515 156.804 244.101 156.845C243.273 156.928 242.097 157.039 240.703 157.15C237.916 157.372 234.251 157.596 230.751 157.601C227.247 157.607 224.167 157.383 221.962 157.157C220.859 157.044 219.975 156.931 219.365 156.846C219.06 156.803 218.824 156.768 218.663 156.743C218.583 156.73 218.522 156.72 218.48 156.713L218.433 156.706L218.42 156.704L218.416 156.703C218.416 156.703 218.416 156.703 218.5 156.21L218.416 156.703C218.144 156.656 217.96 156.398 218.007 156.126C218.053 155.854 218.312 155.671 218.584 155.717ZM245.349 156.682L245.354 156.21H244.854C244.98 156.492 245.233 156.631 245.349 156.682Z" fill="black" fill-opacity="0.17"/>
<path fill-rule="evenodd" clip-rule="evenodd" d="M231.304 121.053C231.55 120.929 231.851 121.028 231.975 121.274C232.227 121.772 233.065 123.482 232.889 125.927C232.712 128.385 231.516 131.511 227.836 134.848C227.632 135.033 227.315 135.018 227.13 134.813C226.944 134.609 226.96 134.292 227.164 134.107C230.682 130.918 231.736 128.021 231.892 125.855C232.049 123.676 231.302 122.16 231.083 121.725C230.958 121.479 231.057 121.178 231.304 121.053Z" fill="black" fill-opacity="0.17"/>
<path d="M228 114H236V126.5H228V114Z" fill="white"/>
<path fill-rule="evenodd" clip-rule="evenodd" d="M228.5 130.411C228.5 130.411 225.969 123.175 227.09 120.5C227.392 119.975 228.534 120.925 229.958 122.109C231.46 123.358 233.276 124.869 234.748 125.182C235.767 125.232 236.047 123.519 236 122C236.924 122.015 237.434 123.658 237.976 125.402C238.143 125.941 238.313 126.489 238.5 127.002C238.199 128.515 239.225 130.881 239.861 132.154L256.143 137.917C256.143 137.917 259.734 139.03 259.041 142.526C258.896 143.254 258.874 143.938 258.855 144.545C258.78 146.851 258.742 148.038 252.149 146.267C247.213 144.34 236.119 136.363 236.119 136.363C236.119 136.363 236.102 136.31 236.082 136.212L230.776 132.84L228.5 130.411Z" fill="#E5A896"/>
<path fill-rule="evenodd" clip-rule="evenodd" d="M238.077 107.547L235.396 104.247L233.336 104.898L234.244 102.819C234.244 102.819 236.026 102 236.42 101.127C236.454 99.9009 236.5 98.4994 236.5 98.4994L238.822 100.051C238.822 100.051 240.794 102.108 240.322 103.683C239.851 105.258 238.077 107.547 238.077 107.547Z" fill="#D8D8D8"/>
<path fill-rule="evenodd" clip-rule="evenodd" d="M225.837 107.547L228.517 104.247L230.476 104.898L229.669 102.819C229.669 102.819 228.179 102.148 227.352 101.145C227.17 99.9343 227.17 98.4998 227.17 98.4998L225.091 100.051C225.091 100.051 223.119 102.108 223.591 103.683C224.063 105.258 225.837 107.547 225.837 107.547Z" fill="#D8D8D8"/>
<path d="M131 183.5H149.5V186.5H131V183.5Z" fill="#FFA800"/>
<path fill-rule="evenodd" clip-rule="evenodd" d="M105.834 69.0437C96.869 69.8277 97.741 79.7982 97.95 82.1877C97.9595 82.2927 97.9745 82.3782 97.996 82.4462C98.0045 82.7092 98.0195 82.9742 98.0425 83.2407C97.816 82.9657 97.563 82.8167 97.308 82.8392C96.591 82.9017 96.1265 84.2912 96.271 85.9412C96.4155 87.5922 98.412 88.7657 99.1295 88.7027C99.336 88.6847 99.4785 88.6422 99.571 88.5777C99.6225 88.6762 99.6755 88.7732 99.729 88.8692C100.071 90.3427 100.576 91.7002 101.204 92.8922L101.458 100.722L86.5105 104.454L86.5525 104.719L78.151 105.953L88.1145 96.4472L93.2595 95.4337L94.996 93.8142C94.996 93.8142 94.4655 92.7172 94.7155 91.9537C94.9655 91.1897 96.418 89.4727 96.418 89.4727L94.7525 86.9532L88.4715 84.6067L86.2725 86.6572L83.419 91.8977L59.5 108.724V118.065H63.5L88.6715 118.12L90.5115 129.756C90.5115 129.756 86.5105 157.065 91.32 165.368C91.4605 165.611 91.62 165.846 91.798 166.074L90.8765 166.065L87.1525 181.183L84.587 231.761C83.7815 236.93 82.8875 242.892 82.598 245.672C81.575 255.486 80.649 282.077 80.649 282.077H86.267C86.267 282.077 95.7705 244.147 96.3765 239.288C96.6785 236.864 96.5395 233.677 96.0395 230.821C97.3145 227.912 98.377 223.656 98.377 223.656L108.473 182.545L110.819 182.478L114.376 230.043C114.376 230.043 114.434 230.63 114.591 231.486C113.289 234.799 111.454 239.88 111.454 242.214C111.454 245.831 109.876 282.264 109.876 282.264H115.493C115.493 282.264 127.327 232.852 127.525 228.378C127.529 228.301 127.514 228.213 127.482 228.116L130.963 181.183L128.332 166.065L126.263 166.08C126.75 165.531 127.14 164.94 127.416 164.305C131.401 155.17 127.416 129.756 127.416 129.756L128.111 126.342L133.896 142.228L138.398 175.487C138.139 175.827 138.023 176.099 138.023 176.099L134.75 181.167L134.709 183.541C134.709 183.541 135.867 183.921 136.242 184.632C136.618 185.342 136.844 187.58 136.844 187.58L139.813 188.132L145.865 185.244L145.917 182.237L144.122 176.52C144.363 176.244 144.486 176.034 144.486 176.034L143.97 146.483C143.914 143.318 143.71 141.21 143.243 139.822C143.177 138.758 142.975 137.93 142.975 137.93L133.391 107.099C133.391 107.099 132.887 106.929 132.109 106.696L132.291 105.804L113.635 100.896C114.058 100.406 114.289 100.066 114.289 100.066L113.731 93.6907C114.609 91.9717 115.164 89.8422 115.29 87.5082C115.348 87.3412 115.403 87.1727 115.454 87.0017C115.522 87.1707 115.703 87.2527 116.077 87.2202C116.794 87.1572 118.557 85.6547 118.412 84.0042C118.268 82.3542 117.569 81.0667 116.852 81.1292C116.491 81.1607 116.193 81.5297 116.006 82.0997C115.998 81.9692 115.988 81.8387 115.977 81.7077C115.952 81.4292 115.92 81.1537 115.881 80.8812C115.89 80.8112 115.891 80.7237 115.881 80.6187C115.672 78.2297 114.8 68.2592 105.834 69.0437ZM108.473 182.545L98.8765 182.819V170.121C102.524 171.158 106.948 171.559 111.231 171.316L108.473 182.545Z" fill="#E6A896"/>
<path fill-rule="evenodd" clip-rule="evenodd" d="M86.4174 169.901C86.4174 169.901 87.7759 147.855 88.5744 137.355C89.3734 126.855 88.0744 121.249 88.0744 121.249L73.9999 121.741C73.9999 121.741 72.6719 114.417 73.9999 110.981C74.7534 109.032 78.4624 105.588 78.4624 105.588C78.4624 105.588 94.9219 100.79 101.047 99.0056C101.405 98.9011 101.309 100.636 101.309 100.636C101.309 100.636 103.571 102.158 104.608 102.565C105.503 102.917 107.74 111.211 107.74 111.211C107.74 111.211 109.225 102.793 110.497 102.193C111.531 101.705 113.913 100.136 113.913 100.136C113.913 100.136 113.744 100.847 113.913 99.1506C118.138 100.065 134.705 105.765 134.705 105.765L142.288 125.13L139.405 126L138.755 124.143L129.192 129.841L132.414 166L86.4174 169.901Z" fill="#A93333"/>
<path fill-rule="evenodd" clip-rule="evenodd" d="M113.833 107.178L111.153 103.878L109.198 104.592L110 102.45C110 102.45 112.491 100.779 113.318 99.7758C114.145 98.7728 114.145 96.4998 114.145 96.4998L116.079 99.6823C116.079 99.6823 116.551 101.738 116.079 103.313C115.607 104.889 113.833 107.178 113.833 107.178Z" fill="#D8D8D8"/>
<path fill-rule="evenodd" clip-rule="evenodd" d="M101.481 107.178L104.116 104.158L105.864 104.856L105.314 102.45C105.314 102.45 102.824 100.779 101.996 99.7758C101.169 98.7728 101.526 96.4998 101.526 96.4998L99.2359 99.4828C99.2359 99.4828 98.7639 101.738 99.2359 103.313C99.7079 104.889 101.481 107.178 101.481 107.178Z" fill="#D8D8D8"/>
<path fill-rule="evenodd" clip-rule="evenodd" d="M98.8765 88.9302L97.043 79.9998L86 83.9868L88.0645 93.4997L90.7455 92.3667C91.156 90.5262 91.969 87.1302 92.295 87.5327C92.343 87.5917 92.4355 87.6853 92.5565 87.8083C93.1165 88.3753 94.2875 89.5613 94.4745 90.7908L98.8765 88.9302Z" fill="#302E4F"/>
<path fill-rule="evenodd" clip-rule="evenodd" d="M115.506 287.5L129.467 294.034H107.5L109.357 287.5C109.357 287.5 111.305 288.184 112.332 288.184C113.358 288.184 115.506 287.5 115.506 287.5Z" fill="#555277"/>
<path fill-rule="evenodd" clip-rule="evenodd" d="M86.29 294L71.6895 294.034L79.488 287.09C79.488 287.09 81.3935 287.796 82.5 287.796C83.6065 287.796 85.9765 287.09 85.9765 287.09L86.29 294Z" fill="#555277"/>
<path fill-rule="evenodd" clip-rule="evenodd" d="M101.446 132.773C101.321 132.527 101.02 132.429 100.774 132.554L101.446 132.773ZM101 133C100.554 133.226 100.554 133.226 100.555 133.226L100.556 133.23L100.561 133.24L100.581 133.277C100.597 133.309 100.622 133.357 100.655 133.419C100.72 133.543 100.817 133.725 100.945 133.956C101.2 134.42 101.576 135.085 102.065 135.893C103.043 137.509 104.47 139.703 106.272 142.016C109.862 146.623 114.997 151.776 121.075 153.68C121.338 153.762 121.619 153.615 121.702 153.352C121.784 153.088 121.637 152.808 121.374 152.725C115.597 150.916 110.619 145.968 107.061 141.401C105.289 139.127 103.883 136.967 102.921 135.376C102.44 134.58 102.07 133.927 101.821 133.475C101.697 133.248 101.602 133.072 101.539 132.953C101.508 132.893 101.484 132.848 101.469 132.817L101.451 132.784L101.447 132.776L101.446 132.773L101 133ZM100.774 132.554C100.528 132.679 100.43 132.98 100.555 133.226L100.774 132.554ZM100.555 133.226L101 133L100.555 133.226Z" fill="black" fill-opacity="0.17"/>
<path fill-rule="evenodd" clip-rule="evenodd" d="M115.914 169.187C108.354 169.374 98.5911 169.749 89.7606 170.498C89.4856 170.521 89.2436 170.317 89.2201 170.042C89.1966 169.767 89.4011 169.525 89.6761 169.502C98.5356 168.75 108.322 168.375 115.889 168.187C119.674 168.094 122.905 168.047 125.19 168.023C126.333 168.011 127.24 168.006 127.86 168.003C128.171 168.001 128.41 168 128.571 168L128.817 168C128.817 168 128.817 168 128.817 168.5C128.817 169 128.817 169 128.817 169L128.574 169C128.413 169 128.175 169.001 127.865 169.003C127.246 169.006 126.341 169.011 125.201 169.023C122.919 169.047 119.693 169.093 115.914 169.187ZM129.317 168.5C129.317 168.776 129.093 169 128.817 169L128.817 168.5L128.817 168C129.093 168 129.317 168.224 129.317 168.5Z" fill="black" fill-opacity="0.17"/>
<path fill-rule="evenodd" clip-rule="evenodd" d="M96.2695 173.534C95.102 175.069 93.0215 177.805 88.207 182.672C88.0125 182.868 87.696 182.87 87.4995 182.676C87.3035 182.481 87.3015 182.165 87.496 181.968C92.267 177.146 94.3205 174.445 95.474 172.928C95.5485 172.83 95.6195 172.737 95.6865 172.648C96.229 171.938 96.624 171.437 97.109 171.145C97.6215 170.836 98.1825 170.787 98.9435 170.773C99.2195 170.768 99.4475 170.988 99.4525 171.264C99.4575 171.54 99.238 171.768 98.962 171.773C98.199 171.787 97.8855 171.845 97.6245 172.002C97.336 172.175 97.0585 172.5 96.4815 173.255C96.414 173.343 96.3435 173.436 96.2695 173.534Z" fill="black" fill-opacity="0.17"/>
<path fill-rule="evenodd" clip-rule="evenodd" d="M123.323 172.684C124.152 173.951 125.876 176.495 130.997 181.672C131.192 181.868 131.508 181.87 131.704 181.676C131.901 181.481 131.902 181.165 131.708 180.969C126.63 175.836 124.949 173.343 124.16 172.137C124.132 172.094 124.105 172.052 124.078 172.012C123.919 171.768 123.784 171.561 123.661 171.399C123.513 171.204 123.349 171.03 123.125 170.908C122.902 170.787 122.666 170.743 122.418 170.721C122.21 170.703 121.955 170.699 121.653 170.693C121.604 170.693 121.555 170.692 121.504 170.691C121.228 170.686 121 170.905 120.994 171.181C120.989 171.458 121.209 171.685 121.485 171.691C121.539 171.692 121.589 171.692 121.638 171.693C121.947 171.699 122.161 171.703 122.331 171.717C122.521 171.734 122.6 171.761 122.647 171.787C122.693 171.812 122.755 171.86 122.866 172.005C122.965 172.135 123.076 172.306 123.238 172.554C123.265 172.595 123.293 172.639 123.323 172.684Z" fill="black" fill-opacity="0.17"/>
<path opacity="0.2" fill-rule="evenodd" clip-rule="evenodd" d="M103.501 82.6142C102.398 82.6722 101.476 82.1872 101.441 81.5307C101.407 80.8742 102.273 80.2957 103.376 80.2377C104.479 80.1797 105.401 80.6652 105.436 81.3212C105.47 81.9777 104.604 82.5567 103.501 82.6142Z" fill="black"/>
<path fill-rule="evenodd" clip-rule="evenodd" d="M103.296 79.9368C102.563 79.9763 102.032 80.1078 101.686 80.2313C101.513 80.2928 101.384 80.3533 101.299 80.3998C101.259 80.4218 101.221 80.4448 101.191 80.4668C101.183 80.4728 101.171 80.4818 101.157 80.4938C101.151 80.4993 101.14 80.5098 101.127 80.5233L101.127 80.5238C101.119 80.5318 101.087 80.5673 101.062 80.6208C101.05 80.6478 101.022 80.7148 101.028 80.8048C101.036 80.9173 101.095 81.0258 101.197 81.0923C101.279 81.1458 101.357 81.1523 101.389 81.1538C101.426 81.1548 101.456 81.1503 101.472 81.1473C101.521 81.1383 101.559 81.1208 101.565 81.1178C101.565 81.1173 101.566 81.1173 101.566 81.1173C101.598 81.1023 101.628 81.0833 101.653 81.0608C101.655 81.0598 101.657 81.0588 101.659 81.0578C101.707 81.0318 101.799 80.9873 101.938 80.9373C102.216 80.8383 102.678 80.7203 103.346 80.6853L103.357 80.6848L103.368 80.6838C104.012 80.6128 104.664 80.6933 105.272 80.9193C105.467 80.9913 105.682 80.8923 105.754 80.6983C105.827 80.5038 105.728 80.2883 105.533 80.2158C104.819 79.9508 104.054 79.8553 103.296 79.9368Z" fill="black" fill-opacity="0.87"/>
<path fill-rule="evenodd" clip-rule="evenodd" d="M103.557 83.6833C103.005 83.7118 102.535 83.2993 102.507 82.7618C102.479 82.2238 102.903 81.7648 103.455 81.7358C104.006 81.7068 104.476 82.1193 104.504 82.6573C104.533 83.1948 104.108 83.6543 103.557 83.6833Z" fill="#1D1D1B" fill-opacity="0.695171"/>
<path opacity="0.2" fill-rule="evenodd" clip-rule="evenodd" d="M111.49 82.1958C110.387 82.2538 109.465 81.7683 109.43 81.1123C109.396 80.4558 110.262 79.8768 111.365 79.8193C112.468 79.7613 113.39 80.2463 113.425 80.9028C113.459 81.5593 112.593 82.1378 111.49 82.1958Z" fill="black"/>
<path fill-rule="evenodd" clip-rule="evenodd" d="M111.285 79.5183C110.552 79.5579 110.021 79.6888 109.675 79.8124C109.502 79.8744 109.373 79.9343 109.288 79.9813C109.248 80.0033 109.21 80.0264 109.18 80.0484C109.172 80.0539 109.16 80.0633 109.146 80.0748C109.14 80.0808 109.129 80.0909 109.116 80.1049L109.116 80.1054C109.108 80.1134 109.076 80.1484 109.051 80.2024C109.039 80.2289 109.011 80.2964 109.017 80.3864C109.025 80.4989 109.084 80.6074 109.186 80.6739C109.268 80.7274 109.346 80.7339 109.378 80.7349C109.415 80.7364 109.445 80.7319 109.461 80.7289C109.51 80.7199 109.548 80.7019 109.554 80.6989H109.555C109.587 80.6839 109.617 80.6644 109.642 80.6424C109.644 80.6414 109.646 80.6404 109.648 80.6394C109.696 80.6129 109.788 80.5684 109.927 80.5189C110.205 80.4199 110.667 80.3019 111.335 80.2669L111.346 80.2664L111.357 80.2649C112.001 80.1944 112.654 80.2749 113.261 80.5004C113.456 80.5724 113.671 80.4739 113.744 80.2794C113.816 80.0854 113.717 79.8694 113.523 79.7974C112.808 79.5323 112.043 79.4368 111.285 79.5183Z" fill="black" fill-opacity="0.87"/>
<path fill-rule="evenodd" clip-rule="evenodd" d="M111.546 83.2643C110.994 83.2933 110.524 82.8808 110.496 82.3428C110.468 81.8053 110.892 81.3458 111.444 81.3168C111.995 81.2883 112.465 81.7008 112.493 82.2383C112.522 82.7763 112.097 83.2353 111.546 83.2643Z" fill="#1D1D1B" fill-opacity="0.695171"/>
<path opacity="0.1" fill-rule="evenodd" clip-rule="evenodd" d="M106.784 87.9277C106.826 88.7317 107.309 89.3572 107.859 89.3282C108.408 89.2997 108.823 88.6267 108.781 87.8232C108.739 87.0192 108.337 87.8462 107.782 87.8752C107.228 87.9042 106.742 87.1237 106.784 87.9277Z" fill="black"/>
<path fill-rule="evenodd" clip-rule="evenodd" d="M107.161 82.9548C107.16 82.9553 107.16 82.9558 107.528 83.0278L107.16 82.9558C107.147 83.0258 107.153 83.0948 107.176 83.1568C107.179 83.1778 107.183 83.2113 107.188 83.2633C107.211 83.4988 107.25 84.0263 107.311 85.1868C107.342 85.7758 107.596 86.5208 107.821 87.0963C107.936 87.3913 108.05 87.6558 108.133 87.8503L108.137 87.8593C108.171 87.9398 108.2 88.0053 108.221 88.0568C108.189 88.0933 108.14 88.1363 108.078 88.1818C108.011 88.2313 107.941 88.2748 107.886 88.3058C107.86 88.3213 107.838 88.3333 107.823 88.3413C107.815 88.3453 107.81 88.3483 107.806 88.3498L107.803 88.3513C107.618 88.4438 107.542 88.6688 107.634 88.8543C107.727 89.0398 107.952 89.1153 108.137 89.0228L107.97 88.6873C108.137 89.0228 108.137 89.0228 108.137 89.0228L108.139 89.0223L108.141 89.0208L108.149 89.0168C108.155 89.0138 108.164 89.0093 108.175 89.0038C108.196 88.9923 108.226 88.9758 108.261 88.9558C108.331 88.9158 108.426 88.8573 108.522 88.7863C108.616 88.7168 108.726 88.6253 108.814 88.5168C108.897 88.4153 109.004 88.2463 108.992 88.0328C108.99 87.9863 108.979 87.9488 108.976 87.9368C108.971 87.9188 108.965 87.9018 108.961 87.8883C108.951 87.8608 108.938 87.8293 108.926 87.7978C108.901 87.7373 108.867 87.6578 108.828 87.5678L108.822 87.5538C108.739 87.3598 108.63 87.1058 108.519 86.8233C108.293 86.2448 108.084 85.6023 108.06 85.1478C107.999 83.9868 107.96 83.4443 107.935 83.1898C107.923 83.0738 107.913 82.9918 107.898 82.9368C107.894 82.9248 107.883 82.8833 107.857 82.8383C107.845 82.8178 107.812 82.7633 107.747 82.7178C107.666 82.6603 107.537 82.6223 107.401 82.6723C107.292 82.7123 107.237 82.7883 107.218 82.8153C107.196 82.8493 107.184 82.8793 107.178 82.8933C107.172 82.9103 107.168 82.9243 107.166 82.9333C107.164 82.9378 107.163 82.9423 107.162 82.9458L107.161 82.9513L107.161 82.9533V82.9548Z" fill="black" fill-opacity="0.54"/>
<path fill-rule="evenodd" clip-rule="evenodd" d="M111.348 91.4748C111.317 91.2698 111.126 91.1293 110.921 91.1603C108.964 91.4588 106.981 91.5628 105.003 91.4708C104.797 91.4608 104.621 91.6208 104.611 91.8278C104.602 92.0348 104.762 92.2103 104.968 92.2198C106.996 92.3143 109.028 92.2078 111.034 91.9018C111.239 91.8708 111.38 91.6793 111.348 91.4748Z" fill="black" fill-opacity="0.54"/>
<path fill-rule="evenodd" clip-rule="evenodd" d="M99.7036 84.6728L99.4036 78.9423C99.4036 78.9423 101.94 77.2488 101.643 74.2848C104.814 74.2903 109.407 74.5963 112.779 75.2238C112.66 76.2538 112.611 78.6013 114.559 78.9568L114.768 82.9398L115.322 83.2653C115.322 83.2653 115.552 81.6803 116.384 81.1978L117.479 74.8533L117.449 74.8528C117.542 73.7403 117.26 72.4353 115.831 70.7748C112.991 67.4748 106.924 64.8878 105.693 64.3768C105.111 64.1353 104.884 64.5553 104.614 65.0568C104.329 65.5858 103.995 66.2058 103.144 66.2368C100.863 66.3203 98.4036 66.5313 97.5106 69.0678C97.4416 69.2658 97.4821 69.8283 97.5226 70.3868C97.5686 71.0223 97.6141 71.6533 97.4966 71.7358L97.4951 71.7368C97.4106 71.7973 95.2296 73.3668 95.6241 74.6003C96.0266 75.8563 96.4941 79.9713 96.4941 79.9713C96.4941 79.9713 98.7296 82.3113 98.7626 84.2953L99.7036 84.6728Z" fill="#302E4F"/>
<path fill-rule="evenodd" clip-rule="evenodd" d="M108.547 63.6538C114.708 64.3808 116.816 69.0248 116.816 69.0248L118.278 76.9593L95.3101 78.1628L95.6741 70.1328C95.6741 70.1328 97.4931 65.2778 103.598 63.9113L103.921 62.6913L108.097 62.4723L108.547 63.6538Z" fill="#FFA800"/>
<path d="M116.435 76.3143C116.435 76.3143 115.966 76.5798 115.372 76.6108C114.778 76.6418 113.195 76.2243 113.195 76.2243L115.032 70.1199L116.107 70.0634L116.435 76.3143Z" fill="#E89900"/>
<path d="M97.0765 77.3288C97.0765 77.3288 97.5705 77.5438 98.1645 77.5128C98.7585 77.4818 100.289 76.9008 100.289 76.9008L97.824 71.0219L96.7485 71.0779L97.0765 77.3288Z" fill="#E89900"/>
<path d="M119.79 77.1498C119.79 77.1498 114.016 78.1838 106.846 78.5598C99.6765 78.9353 93.826 78.5108 93.826 78.5108L93.7815 77.6588L106.689 75.5638L119.746 76.2983L119.79 77.1498Z" fill="#E89900"/>
<path d="M104.241 95.7198C104.262 96.1168 108.497 100.503 112.23 95.3008" stroke="black" stroke-opacity="0.17" stroke-linecap="round"/>
<path fill-rule="evenodd" clip-rule="evenodd" d="M115.506 287.666L111.954 290.068L109.356 287.666L109.612 280H116.54L115.506 287.666Z" fill="#EADED5"/>
<path fill-rule="evenodd" clip-rule="evenodd" d="M84.5 289.77L80 287.09L80.4625 279.758H87.276L85.5 287.09L84.5 289.77Z" fill="#EADED5"/>
<path fill-rule="evenodd" clip-rule="evenodd" d="M127.25 233L121 284.25H108L111.212 231L109.893 186.774L99 231L90.25 284.25H79.5L82.75 231L85.5 178.111L87.773 168.769C93.783 166.838 131.524 166 131.524 166L133.714 178.111L127.25 233Z" fill="#6A2727"/>
<path d="M120.5 196.5H145.5V220H121.5L120.5 218V196.5Z" fill="#E89900"/>
<path d="M133 196.5H158V218L157 220H132L133 218V196.5Z" fill="#FFA800"/>
<path d="M119.5 190H145.5V196.5H119.5V190Z" fill="#E89900"/>
<path d="M134 190H159V196.5H134V190Z" fill="#FFA800"/>
<path d="M131 183.5H133.5V190H131V183.5Z" fill="#FFA800"/>
<path d="M147.5 183.5H150V190.5H147.5V183.5Z" fill="#FFA800"/>
<path d="M136.5 194.5H140.5V201H136.5V194.5Z" fill="#E89900"/>
<path d="M154 194.5H158V201H154V194.5Z" fill="#E89900"/>
</svg>
