<svg width="117" height="24" viewBox="0 0 117 24" fill="none" xmlns="http://www.w3.org/2000/svg">
<path d="M31.1548 23.514H25.0419L15.5253 10.5588V23.514H9.27344V0.451716H15.3863L24.903 13.4069V2.77878C24.903 1.49369 25.9449 0.416992 27.2648 0.416992H31.1895V23.514H31.1548Z" fill="#000033"/>
<path d="M40.5326 6.18255V17.7484H43.8322C47.618 17.7484 49.4588 15.2824 49.4588 11.9481C49.4588 8.57908 47.618 6.14782 43.8322 6.14782H40.5326V6.18255ZM55.9538 11.9828C55.9538 18.9293 51.1955 23.514 43.9711 23.514H34.2461V2.77878C34.2461 1.49369 35.2881 0.416992 36.6079 0.416992H43.9711C51.1955 0.451724 55.9538 5.03638 55.9538 11.9828Z" fill="#000033"/>
<path d="M98.2924 11.9826C98.2924 15.5253 100.62 17.9566 103.989 17.9566C107.358 17.9566 109.685 15.5253 109.685 11.9826C109.685 8.43995 107.358 6.00868 103.989 6.00868C100.62 6.00868 98.2924 8.43995 98.2924 11.9826ZM116.18 11.9826C116.18 18.8596 111.109 23.9653 103.989 23.9653C96.8684 23.9653 91.7975 18.8944 91.7975 11.9826C91.7975 5.10565 96.8684 0 103.989 0C111.109 0 116.18 5.10565 116.18 11.9826Z" fill="#000033"/>
<path d="M89.8177 10.3154H79.6064V12.5382C79.6064 13.8233 80.6484 14.9 81.9682 14.9H83.7396C83.0796 17.1576 81.4125 18.3038 78.5297 18.3038C75.5775 18.3038 72.8683 16.2199 72.8683 12.0172C72.8683 8.40509 75.1607 5.90436 78.4255 5.90436C80.3705 5.90436 81.7946 6.56427 82.8365 7.60624L87.2475 3.2647C85.3025 1.28496 82.4545 0.0693359 78.8076 0.0693359C71.5485 0.0693359 66.4429 5.00132 66.4429 12.052C66.4429 19.0679 71.5485 23.9999 78.8076 23.9999C84.2258 23.9999 89.9566 20.1446 89.9566 12.434C89.9566 11.7046 89.9219 11.01 89.8177 10.3154Z" fill="#000033"/>
<path d="M6.25181 0.45166H0C0 3.95962 0 6.32142 0 6.35615C0 7.9191 0.590453 9.51679 1.80608 10.6977C2.3618 11.2534 3.02171 11.6702 3.68163 11.9828C2.98698 12.2954 2.3618 12.7122 1.80608 13.2679C0.590453 14.4835 0 16.0465 0 17.6094C0 17.6442 0 20.006 0 23.5139H6.25181V0.45166Z" fill="#000033"/>
<path d="M63.9769 0.45166H57.7251C57.7251 3.95962 57.7251 6.32142 57.7251 6.35615C57.7251 7.9191 58.3155 9.51679 59.5312 10.6977C60.0869 11.2534 60.7468 11.6702 61.4067 11.9828C60.7121 12.2954 60.0869 12.7122 59.5312 13.2679C58.3155 14.4835 57.7251 16.0465 57.7251 17.6094C57.7251 17.6442 57.7251 20.006 57.7251 23.5139H63.9769V0.45166Z" fill="#000033"/>
</svg>
