<svg width="181" height="64" viewBox="0 0 181 64" fill="none" xmlns="http://www.w3.org/2000/svg">
<g clip-path="url(#clip0)">
<path d="M48.5369 0.680176H42.4518C40.4116 0.680176 38.8008 2.32671 38.8008 4.33118V20.8681L23.982 0.680176H14.4966V36.6175H24.2326V16.3938L39.0514 36.5817H48.5369V0.680176Z" fill="#000033"/>
<path d="M87.1231 18.6489C87.1231 7.80322 79.7137 0.680176 68.4743 0.680176H57.0201C54.9799 0.680176 53.3691 2.32671 53.3691 4.33118V36.5817H68.5101C79.7494 36.5817 87.1231 29.4587 87.1231 18.6489ZM68.2595 27.6332H63.1409V9.62872H68.2595C74.1656 9.62872 77.0291 13.3871 77.0291 18.6489C76.9933 23.8032 74.1656 27.6332 68.2595 27.6332Z" fill="#000033"/>
<path d="M161.933 0C150.837 0 142.926 7.91051 142.926 18.6488C142.926 29.387 150.801 37.2975 161.933 37.2975C173.029 37.2975 180.94 29.387 180.94 18.6488C180.904 7.91051 173.029 0 161.933 0ZM161.933 27.9195C156.707 27.9195 153.092 24.1253 153.092 18.613C153.092 13.1365 156.707 9.30649 161.933 9.30649C167.159 9.30649 170.774 13.1007 170.774 18.613C170.774 24.1253 167.159 27.9195 161.933 27.9195Z" fill="#000033"/>
<path d="M123.991 16V19.472C123.991 21.5123 125.638 23.123 127.642 23.123H130.398C129.36 26.6309 126.783 28.4206 122.273 28.4206C117.691 28.4206 113.432 25.1633 113.432 18.613C113.432 12.9933 117.011 9.09172 122.094 9.09172C125.137 9.09172 127.32 10.1298 128.931 11.7405L135.803 4.97539C132.796 1.8613 128.43 0 122.703 0C111.392 0 103.445 7.69575 103.445 18.6488C103.445 29.566 111.392 37.2617 122.703 37.2617C131.15 37.2617 140.063 31.2483 140.063 19.2573C140.063 18.2192 140.027 17.1454 139.848 16.0358H123.991V16Z" fill="#000033"/>
<path d="M0 27.3826C0 27.4184 0 31.1052 0 36.5817H9.73602V0.680176H0C0 6.15669 0 9.84349 0 9.87928C0 12.3133 0.930649 14.7831 2.79195 16.6444C3.65101 17.5034 4.65324 18.1835 5.72707 18.6489C4.65324 19.1142 3.65101 19.7585 2.79195 20.6533C0.966443 22.4788 0 24.9486 0 27.3826Z" fill="#000033"/>
<path d="M89.8792 27.3826C89.8792 27.4184 89.8792 31.1052 89.8792 36.5817H99.6152V0.680176H89.8792C89.8792 6.15669 89.8792 9.84349 89.8792 9.87928C89.8792 12.3133 90.8098 14.7831 92.6711 16.6444C93.5302 17.5034 94.5324 18.1835 95.6062 18.6489C94.5324 19.1142 93.5302 19.7585 92.6711 20.6533C90.8098 22.4788 89.8792 24.9486 89.8792 27.3826Z" fill="#000033"/>
<path d="M19.0067 63.7138H16.7517V48.1791L10.7025 61.7451H8.30425L2.25503 48.2865V63.7138H0V45.6377H3.47204L9.52125 59.1321L15.5705 45.6377H19.0067V63.7138Z" fill="#CC0000"/>
<path d="M24.8053 54.6937C24.8053 58.9174 27.8121 61.8167 31.7852 61.8167C35.7584 61.8167 38.7651 58.9532 38.7651 54.6937C38.7651 50.47 35.7584 47.5706 31.7852 47.5706C27.8121 47.5706 24.8053 50.4342 24.8053 54.6937ZM41.1275 54.6937C41.1275 60.0986 37.1901 64.0002 31.7852 64.0002C26.3803 64.0002 22.4429 60.0986 22.4429 54.6937C22.4429 49.2888 26.3803 45.3872 31.7852 45.3872C37.1901 45.3872 41.1275 49.2888 41.1275 54.6937Z" fill="#CC0000"/>
<path d="M46.783 55.6241V61.566H51.7584C54.3714 61.566 56.0895 60.9217 56.0895 58.5592C56.0895 56.2684 54.3714 55.6241 51.7584 55.6241H46.783ZM46.783 47.7852V53.5123H51.4363C53.8345 53.5123 55.6958 52.9754 55.6958 50.6129C55.6958 48.3221 53.7987 47.7852 51.4005 47.7852H46.783ZM51.5079 45.6733C55.3021 45.6733 58.094 46.9977 58.094 50.4698C58.094 52.4384 57.056 53.8344 55.5168 54.4429C57.235 55.0514 58.4877 56.4832 58.4877 58.7024C58.4877 62.2103 55.9106 63.7494 51.8658 63.7494H44.528V45.7091H51.5079V45.6733Z" fill="#CC0000"/>
<path d="M64.2506 45.6733H61.9955V63.7136H64.2506V45.6733Z" fill="#CC0000"/>
<path d="M81.2529 63.7136H68.6533V45.6733H70.9084V61.566H81.2529V63.7136Z" fill="#CC0000"/>
<path d="M96.3938 63.7136H83.6152V45.6733H96.2864V47.7852H85.8703V53.5481H95.9284V55.6957H85.8703V61.566H96.3938V63.7136Z" fill="#CC0000"/>
</g>
<defs>
<clipPath id="clip0">
<path d="M0 0H180.8V64H0V0Z" fill="white"/>
</clipPath>
</defs>
</svg>
