<?xml version="1.0" encoding="utf-8"?>
<!-- Generator: Adobe Illustrator 22.0.1, SVG Export Plug-In . SVG Version: 6.00 Build 0)  -->
<svg version="1.1" id="Layer_1" xmlns="http://www.w3.org/2000/svg" xmlns:xlink="http://www.w3.org/1999/xlink" x="0px" y="0px"
	 viewBox="0 0 284.3 96" style="enable-background:new 0 0 284.3 96;" xml:space="preserve">
<style type="text/css">
	.st0{fill:#FFFFFF;}
</style>
<path class="st0" d="M19.8,3.9c-1.9-2.8-5.7-4-9.2-3.9c-4.9,0-10,2.6-10,8c0,5.5,5.1,6.8,10.1,7.3c3.8,0.5,7.9,0.6,7.9,5.1
	c-0.1,4-4.2,5.2-7.5,5.3c-3.4,0-7.7-1.4-7.9-5.1H0c0.2,5.7,6,8.1,11.1,8c5-0.1,10.7-2.3,10.7-8.2c0-6.1-5.1-7.1-10.6-7.7
	C7.8,12.2,3.8,12.1,3.8,8c0-3.6,3.8-4.9,6.8-5c2.7,0,5.8,0.8,6.9,3.3L19.8,3.9z M46.1,12.1H29.8V0.5h-1.2c-0.5,0-1.1,0.2-1.5,0.6
	s-0.6,1-0.6,1.5s0,21.9,0,25.5h1.1l0,0c0.5,0,1.1-0.2,1.5-0.6s0.6-1,0.6-1.5c0-0.2,0-1.5,0-2.9v-7.9h16.2v13h1.2l0,0
	c0.5,0,1.1-0.2,1.5-0.6s0.6-0.9,0.6-1.5V9.8c0-4.2,0-7.9,0-9.3H48l0,0c-0.5,0-1.1,0.2-1.5,0.6s-0.6,1-0.6,1.5s0,8.5,0,8.5l0,0v1
	H46.1z M59.3,26c0-0.2,0-4.6,0-9.6V0.5h-1.2c-0.5,0-1.1,0.2-1.5,0.6S56,2.1,56,2.6c0,0.3,0,7.9,0,14.8v10.7h1.2
	c0.5,0,1.1-0.2,1.5-0.6C59.1,27.1,59.3,26.5,59.3,26 M78.7,15.3h-9.4V3.4h9.4c3.6,0,6.2,2.4,6.2,5.9C84.9,12.9,82.2,15.3,78.7,15.3
	 M90.8,28.1L80.5,17.8c4.7-0.8,7.6-4.2,7.6-8.5c0-5-3.8-8.9-9.4-8.9H68.1c-0.5,0-1.1,0.2-1.5,0.6C66.2,1.5,66,2,66,2.6
	c0,0.3,0,8.9,0,16.1v9.5h1.2l0,0c0.5,0,1.1-0.2,1.5-0.6s0.6-1,0.6-1.5c0-0.2,0-1.1,0-2.3V18h7.1l8.9,8.9c0.3,0.3,0.6,0.6,0.6,0.6
	c0.4,0.4,0.9,0.6,1.5,0.6l0,0H90.8z M98,25.1v-9.8h14v-2.9H98v-9h14.4V0.5H96.8c-0.5,0-1.1,0.2-1.5,0.6s-0.6,1-0.6,1.5
	s0,21.9,0,25.5h16l0,0c0.5,0,1.1-0.2,1.5-0.6s0.6-1,0.6-1.5c0,0,0-0.1,0-0.2v-0.7C112.8,25.1,98,25.1,98,25.1z M137.7,20.3
	c0,3.4-2.4,4.9-5.7,4.9h-10.1v-9.9h9.3C134.9,15.4,137.8,16.7,137.7,20.3 M130.9,12.6H122V3.2h8.9c3.3,0,5.7,1.2,5.7,4.8
	C136.6,11.5,134.1,12.6,130.9,12.6 M136.1,13.7c2.4-0.9,3.7-3,3.7-5.7c0-5.3-3.7-7.5-8.7-7.5h-10.3c-0.5,0-1.1,0.2-1.5,0.6
	s-0.6,0.9-0.6,1.5v25.6h13.6c5.2,0,8.8-2.7,8.8-7.8C141,16.9,139.2,14.6,136.1,13.7 M169.1,18V0.4H168c-0.5,0-1.1,0.2-1.5,0.6
	s-0.6,1-0.6,1.5c0,0.2,0,2.1,0,4.5v10.9c0,0,0,0,0,0.1c0,0.4,0,0.7,0,0.7l0,0c-0.3,4.4-3.6,6.9-8.1,6.9c-4.7,0-8.1-2.7-8.1-7.6V0.4
	h-1.1c-0.5,0-1.1,0.2-1.5,0.6s-0.6,1-0.6,1.5c0,0.3,0,8.4,0,15.5c0,6.6,5,10.4,11.5,10.4C164.2,28.5,169.1,24.7,169.1,18 M194.9,9.3
	c0,3.6-2.7,6-6.2,6h-9.4V3.4h9.4C192.3,3.4,194.9,5.7,194.9,9.3 M198.1,9.3c0-5-3.8-8.9-9.4-8.9h-10.6c-0.5,0-1.1,0.2-1.5,0.6
	S176,1.9,176,2.4V28h1.2l0,0c0.5,0,1.1-0.2,1.5-0.6s0.6-0.9,0.6-1.4v-8h7.1l5.5,5.5c2.3,2.3,3.9,3.9,4,4c0.4,0.4,0.9,0.6,1.5,0.6
	l0,0h3.3l-10.3-10.3C195.2,17,198.1,13.6,198.1,9.3 M229.1,28.2V0.4h-1.2c-0.5,0-1.1,0.2-1.5,0.6s-0.6,0.9-0.6,1.5v19l0,0l0,0
	c0,0-20.1-20.1-20.5-20.5c-0.3-0.3-0.7-0.5-1.2-0.6v27.7h1.1l0,0c0.5,0,1.1-0.2,1.5-0.6s0.6-0.9,0.6-1.5V7.3l20.3,20.3
	C228.1,28,228.6,28.2,229.1,28.2L229.1,28.2"/>
<path class="st0" d="M72.3,95.2L72.3,95.2v-56h-4l0,0c-2,0-4.1,0.8-5.6,2.3c-1.6,1.6-2.3,3.6-2.3,5.6s0,10.4,0,10.4l0,0v12.9
	l-29.2-29l0,0l0,0c-1.5-1.5-3.6-2.3-5.6-2.3c-0.1,0-0.2,0-0.3,0l0,0l0,0v4.4v51.6h11.9V63.7l29.2,29.2l0,0l0,0
	c1.5,1.5,3.6,2.3,5.6,2.3C72,95.2,72.1,95.2,72.3,95.2L72.3,95.2z M121.3,67.1c0,8.9-5.3,17.2-15.6,17.2H97V50.1h8.7
	C115.8,50.1,121.3,58.1,121.3,67.1 M133.2,67c0-14.2-9.6-27.7-27.3-27.7H93c-2,0-4.1,0.8-5.6,2.3c-1.6,1.6-2.3,3.6-2.3,5.6
	c0,1.5,0,32.7,0,47.8h20.7C123.8,95.1,133.4,81.3,133.2,67 M219.4,79.8c1.8-5.1,2-10.3,1.7-15.6h-4.9h-13.4h-7.6
	c-0.2,0.7-0.3,1.4-0.3,2v0.1c0,2,0.8,4,2.3,5.5s3.5,2.3,5.5,2.3h0.1h0.1h7.2c-2.4,8.4-8,10.7-15.6,10.7c-10,0-16.3-7.2-16.3-17.8
	c0-10,5.9-17.9,16.3-17.9c4.4,0,8,1,10.6,3.5L213,45c-5-4.5-11.7-6.5-18.4-6.5c-14.7,0-28.5,10.1-28.5,28.6s13.7,28.6,28.5,28.6
	C205.2,95.8,215.2,91.1,219.4,79.8 M272.4,67.2c0,12.2-7.9,17.9-16.6,17.9c-8.9,0-16.5-5.7-16.5-17.9c0-11.8,7.8-17.8,16.6-17.8
	C264.6,49.4,272.4,55.3,272.4,67.2 M284.3,67.2c0-18.7-13.8-28.8-28.4-28.8c-14.8,0-28.6,10-28.6,28.8s13.5,28.9,28.4,28.9
	C272.6,96,284.3,84.1,284.3,67.2"/>
<path class="st0" d="M12.6,39.3h-4l0,0c-2,0-4.1,0.8-5.6,2.3s-2.3,3.6-2.3,5.6c0,0.2,0,45.1,0,47.9h4l0,0c2,0,4.1-0.8,5.6-2.3
	c1.6-1.6,2.3-3.6,2.3-5.6C12.6,86.2,12.6,41.6,12.6,39.3"/>
<path class="st0" d="M155.4,39.3h-4l0,0c-2,0-4.1,0.8-5.6,2.3c-1.6,1.5-2.3,3.6-2.3,5.6c0,0.2,0,45.1,0,47.9h4l0,0
	c2,0,4.1-0.8,5.6-2.3c1.6-1.6,2.3-3.6,2.3-5.6C155.4,86.2,155.4,41.6,155.4,39.3"/>
<path class="st0" d="M19.8,3.9c-1.9-2.8-5.7-4-9.2-3.9c-4.9,0-10,2.6-10,8c0,5.5,5.1,6.8,10.1,7.3c3.8,0.5,7.9,0.6,7.9,5.1
	c-0.1,4-4.2,5.2-7.5,5.3c-3.4,0-7.7-1.4-7.9-5.1H0c0.2,5.7,6,8.1,11.1,8c5-0.1,10.7-2.3,10.7-8.2c0-6.1-5.1-7.1-10.6-7.7
	C7.8,12.2,3.8,12.1,3.8,8c0-3.6,3.8-4.9,6.8-5c2.7,0,5.8,0.8,6.9,3.3L19.8,3.9z M46.1,12.1H29.8V0.5h-1.2c-0.5,0-1.1,0.2-1.5,0.6
	s-0.6,1-0.6,1.5s0,21.9,0,25.5h1.1l0,0c0.5,0,1.1-0.2,1.5-0.6s0.6-1,0.6-1.5c0-0.2,0-1.5,0-2.9v-7.9h16.2v13h1.2l0,0
	c0.5,0,1.1-0.2,1.5-0.6s0.6-0.9,0.6-1.5V9.8c0-4.2,0-7.9,0-9.3H48l0,0c-0.5,0-1.1,0.2-1.5,0.6s-0.6,1-0.6,1.5s0,8.5,0,8.5l0,0v1
	H46.1z M59.3,26c0-0.2,0-4.6,0-9.6V0.5h-1.2c-0.5,0-1.1,0.2-1.5,0.6S56,2.1,56,2.6c0,0.3,0,7.9,0,14.8v10.7h1.2
	c0.5,0,1.1-0.2,1.5-0.6C59.1,27.1,59.3,26.5,59.3,26 M78.7,15.3h-9.4V3.4h9.4c3.6,0,6.2,2.4,6.2,5.9C84.9,12.9,82.2,15.3,78.7,15.3
	 M90.8,28.1L80.5,17.8c4.7-0.8,7.6-4.2,7.6-8.5c0-5-3.8-8.9-9.4-8.9H68.1c-0.5,0-1.1,0.2-1.5,0.6C66.2,1.5,66,2,66,2.6
	c0,0.3,0,8.9,0,16.1v9.5h1.2l0,0c0.5,0,1.1-0.2,1.5-0.6s0.6-1,0.6-1.5c0-0.2,0-1.1,0-2.3V18h7.1l8.9,8.9c0.3,0.3,0.6,0.6,0.6,0.6
	c0.4,0.4,0.9,0.6,1.5,0.6l0,0H90.8z M98,25.1v-9.8h14v-2.9H98v-9h14.4V0.5H96.8c-0.5,0-1.1,0.2-1.5,0.6s-0.6,1-0.6,1.5
	s0,21.9,0,25.5h16l0,0c0.5,0,1.1-0.2,1.5-0.6s0.6-1,0.6-1.5c0,0,0-0.1,0-0.2v-0.7C112.8,25.1,98,25.1,98,25.1z M137.7,20.3
	c0,3.4-2.4,4.9-5.7,4.9h-10.1v-9.9h9.3C134.9,15.4,137.8,16.7,137.7,20.3 M130.9,12.6H122V3.2h8.9c3.3,0,5.7,1.2,5.7,4.8
	C136.6,11.5,134.1,12.6,130.9,12.6 M136.1,13.7c2.4-0.9,3.7-3,3.7-5.7c0-5.3-3.7-7.5-8.7-7.5h-10.3c-0.5,0-1.1,0.2-1.5,0.6
	s-0.6,0.9-0.6,1.5v25.6h13.6c5.2,0,8.8-2.7,8.8-7.8C141,16.9,139.2,14.6,136.1,13.7 M169.1,18V0.4H168c-0.5,0-1.1,0.2-1.5,0.6
	s-0.6,1-0.6,1.5c0,0.2,0,2.1,0,4.5v10.9c0,0,0,0,0,0.1c0,0.4,0,0.7,0,0.7l0,0c-0.3,4.4-3.6,6.9-8.1,6.9c-4.7,0-8.1-2.7-8.1-7.6V0.4
	h-1.1c-0.5,0-1.1,0.2-1.5,0.6s-0.6,1-0.6,1.5c0,0.3,0,8.4,0,15.5c0,6.6,5,10.4,11.5,10.4C164.2,28.5,169.1,24.7,169.1,18 M194.9,9.3
	c0,3.6-2.7,6-6.2,6h-9.4V3.4h9.4C192.3,3.4,194.9,5.7,194.9,9.3 M198.1,9.3c0-5-3.8-8.9-9.4-8.9h-10.6c-0.5,0-1.1,0.2-1.5,0.6
	S176,1.9,176,2.4V28h1.2l0,0c0.5,0,1.1-0.2,1.5-0.6s0.6-0.9,0.6-1.4v-8h7.1l5.5,5.5c2.3,2.3,3.9,3.9,4,4c0.4,0.4,0.9,0.6,1.5,0.6
	l0,0h3.3l-10.3-10.3C195.2,17,198.1,13.6,198.1,9.3 M229.1,28.2V0.4h-1.2c-0.5,0-1.1,0.2-1.5,0.6s-0.6,0.9-0.6,1.5v19l0,0l0,0
	c0,0-20.1-20.1-20.5-20.5c-0.3-0.3-0.7-0.5-1.2-0.6v27.7h1.1l0,0c0.5,0,1.1-0.2,1.5-0.6s0.6-0.9,0.6-1.5V7.3l20.3,20.3
	C228.1,28,228.6,28.2,229.1,28.2L229.1,28.2"/>
<path class="st0" d="M72.3,95.2L72.3,95.2v-56h-4l0,0c-2,0-4.1,0.8-5.6,2.3c-1.6,1.6-2.3,3.6-2.3,5.6s0,10.4,0,10.4l0,0v12.9
	l-29.2-29l0,0l0,0c-1.5-1.5-3.6-2.3-5.6-2.3c-0.1,0-0.2,0-0.3,0l0,0l0,0v4.4v51.6h11.9V63.7l29.2,29.2l0,0l0,0
	c1.5,1.5,3.6,2.3,5.6,2.3C72,95.2,72.1,95.2,72.3,95.2L72.3,95.2z M121.3,67.1c0,8.9-5.3,17.2-15.6,17.2H97V50.1h8.7
	C115.8,50.1,121.3,58.1,121.3,67.1 M133.2,67c0-14.2-9.6-27.7-27.3-27.7H93c-2,0-4.1,0.8-5.6,2.3c-1.6,1.6-2.3,3.6-2.3,5.6
	c0,1.5,0,32.7,0,47.8h20.7C123.8,95.1,133.4,81.3,133.2,67 M219.4,79.8c1.8-5.1,2-10.3,1.7-15.6h-4.9h-13.4h-7.6
	c-0.2,0.7-0.3,1.4-0.3,2v0.1c0,2,0.8,4,2.3,5.5s3.5,2.3,5.5,2.3h0.1h0.1h7.2c-2.4,8.4-8,10.7-15.6,10.7c-10,0-16.3-7.2-16.3-17.8
	c0-10,5.9-17.9,16.3-17.9c4.4,0,8,1,10.6,3.5L213,45c-5-4.5-11.7-6.5-18.4-6.5c-14.7,0-28.5,10.1-28.5,28.6s13.7,28.6,28.5,28.6
	C205.2,95.8,215.2,91.1,219.4,79.8 M272.4,67.2c0,12.2-7.9,17.9-16.6,17.9c-8.9,0-16.5-5.7-16.5-17.9c0-11.8,7.8-17.8,16.6-17.8
	C264.6,49.4,272.4,55.3,272.4,67.2 M284.3,67.2c0-18.7-13.8-28.8-28.4-28.8c-14.8,0-28.6,10-28.6,28.8s13.5,28.9,28.4,28.9
	C272.6,96,284.3,84.1,284.3,67.2"/>
<path class="st0" d="M12.6,39.3h-4l0,0c-2,0-4.1,0.8-5.6,2.3s-2.3,3.6-2.3,5.6c0,0.2,0,45.1,0,47.9h4l0,0c2,0,4.1-0.8,5.6-2.3
	c1.6-1.6,2.3-3.6,2.3-5.6C12.6,86.2,12.6,41.6,12.6,39.3"/>
<path class="st0" d="M155.4,39.3h-4l0,0c-2,0-4.1,0.8-5.6,2.3c-1.6,1.5-2.3,3.6-2.3,5.6c0,0.2,0,45.1,0,47.9h4l0,0
	c2,0,4.1-0.8,5.6-2.3c1.6-1.6,2.3-3.6,2.3-5.6C155.4,86.2,155.4,41.6,155.4,39.3"/>
</svg>
