<svg width="36" height="36" viewBox="0 0 36 36" fill="none" xmlns="http://www.w3.org/2000/svg">
<circle cx="18" cy="17.9999" r="18" fill="#FF4B3C"/>
<path fill-rule="evenodd" clip-rule="evenodd" d="M15 17.7499C14.31 17.7499 13.75 18.3099 13.75 18.9999C13.75 19.6899 14.31 20.2499 15 20.2499C15.69 20.2499 16.25 19.6899 16.25 18.9999C16.25 18.3099 15.69 17.7499 15 17.7499ZM21 17.7499C20.31 17.7499 19.75 18.3099 19.75 18.9999C19.75 19.6899 20.31 20.2499 21 20.2499C21.69 20.2499 22.25 19.6899 22.25 18.9999C22.25 18.3099 21.69 17.7499 21 17.7499ZM18 7.99994C12.48 7.99994 8 12.4799 8 17.9999C8 23.5199 12.48 27.9999 18 27.9999C23.52 27.9999 28 23.5199 28 17.9999C28 12.4799 23.52 7.99994 18 7.99994ZM18 25.9999C13.59 25.9999 10 22.4099 10 17.9999C10 17.7099 10.02 17.4199 10.05 17.1399C12.41 16.0899 14.28 14.1599 15.26 11.7699C17.07 14.3299 20.05 15.9999 23.42 15.9999C24.2 15.9999 24.95 15.9099 25.67 15.7399C25.88 16.4499 26 17.2099 26 17.9999C26 22.4099 22.41 25.9999 18 25.9999Z" fill="black" fill-opacity="0.54"/>
</svg>
