<svg width="160" height="160" viewBox="0 0 160 160" fill="none" xmlns="http://www.w3.org/2000/svg">
<circle cx="80" cy="80" r="80" fill="black" fill-opacity="0.05"/>
<path d="M136 114H23C23 114 11 20 79.5 20C148 20 136 114 136 114Z" fill="#000033"/>
<ellipse cx="80" cy="80" rx="36" ry="42" fill="white"/>
<ellipse cx="80" cy="88" rx="39" ry="50" fill="white"/>
<circle r="8" transform="matrix(1 0 0 -1 117 90)" fill="white"/>
<circle r="8" transform="matrix(1 0 0 -1 41 90)" fill="white"/>
<ellipse cx="65" cy="82.5" rx="2" ry="2.5" fill="#000033"/>
<ellipse cx="98" cy="82.5" rx="2" ry="2.5" fill="#000033"/>
<path d="M83.4417 90.6637C83.256 90.1436 82.6838 89.8725 82.1637 90.0583C81.6436 90.244 81.3725 90.8162 81.5583 91.3363L83.4417 90.6637ZM85 98L85.2425 98.9701C85.5164 98.9017 85.7485 98.7207 85.8817 98.4719C86.0149 98.223 86.0367 97.9295 85.9417 97.6637L85 98ZM80.7575 98.0299C80.2217 98.1638 79.8959 98.7067 80.0299 99.2425C80.1638 99.7783 80.7067 100.104 81.2425 99.9701L80.7575 98.0299ZM81.5583 91.3363L84.0583 98.3363L85.9417 97.6637L83.4417 90.6637L81.5583 91.3363ZM84.7575 97.0299L80.7575 98.0299L81.2425 99.9701L85.2425 98.9701L84.7575 97.0299Z" fill="#000033"/>
<circle cx="57" cy="98" r="8" fill="#FFD8D8"/>
<circle cx="105" cy="98" r="7" fill="#FFD8D8"/>
<path d="M113.163 43.47C128.82 54.223 137.077 69.3985 131.605 77.3655C126.133 85.3324 109.005 83.0739 93.3486 72.3209C77.6921 61.5679 69.4356 46.3924 74.9073 38.4254C80.379 30.4585 97.5069 32.717 113.163 43.47Z" fill="#000033"/>
<ellipse rx="17.5" ry="29" transform="matrix(-0.795696 -0.605696 -0.605696 0.795696 59.4899 50.6747)" fill="#000033"/>
<path d="M72.2526 109.341C71.8889 108.926 71.2571 108.884 70.8415 109.247C70.4258 109.611 70.3837 110.243 70.7474 110.659L72.2526 109.341ZM91.7071 110.707C92.0976 110.317 92.0976 109.683 91.7071 109.293C91.3166 108.902 90.6834 108.902 90.2929 109.293L91.7071 110.707ZM71.5 110C70.7474 110.659 70.7477 110.659 70.748 110.659C70.7481 110.659 70.7485 110.66 70.7487 110.66C70.7492 110.66 70.7497 110.661 70.7503 110.662C70.7514 110.663 70.7528 110.665 70.7544 110.666C70.7576 110.67 70.7617 110.675 70.7666 110.68C70.7765 110.691 70.7899 110.706 70.8067 110.724C70.8403 110.76 70.8877 110.811 70.9487 110.873C71.0706 110.997 71.2471 111.169 71.4763 111.372C71.9341 111.779 72.6057 112.316 73.4759 112.852C75.2162 113.922 77.7708 115 81 115L81 113C78.2292 113 76.0338 112.077 74.5241 111.148C73.7693 110.684 73.1909 110.221 72.805 109.878C72.6123 109.706 72.4685 109.566 72.3755 109.471C72.3291 109.424 72.2955 109.388 72.2749 109.366C72.2646 109.355 72.2575 109.347 72.2538 109.343C72.2519 109.341 72.2509 109.34 72.2507 109.339C72.2506 109.339 72.2507 109.339 72.251 109.34C72.2512 109.34 72.2514 109.34 72.2516 109.34C72.2518 109.341 72.252 109.341 72.2521 109.341C72.2523 109.341 72.2526 109.341 71.5 110ZM81 115C84.2238 115 86.8951 113.926 88.7461 112.868C89.6738 112.338 90.4041 111.807 90.906 111.406C91.1572 111.205 91.3521 111.036 91.4867 110.914C91.5541 110.853 91.6064 110.804 91.6433 110.769C91.6617 110.751 91.6763 110.737 91.687 110.727C91.6923 110.722 91.6966 110.717 91.7 110.714C91.7017 110.712 91.7031 110.711 91.7043 110.71C91.7049 110.709 91.7054 110.709 91.7059 110.708C91.7061 110.708 91.7064 110.708 91.7066 110.708C91.7069 110.707 91.7071 110.707 91 110C90.2929 109.293 90.2931 109.293 90.2933 109.292C90.2934 109.292 90.2936 109.292 90.2937 109.292C90.294 109.292 90.2941 109.292 90.2942 109.292C90.2944 109.291 90.2944 109.291 90.2941 109.292C90.2936 109.292 90.2921 109.294 90.2897 109.296C90.2849 109.301 90.2763 109.309 90.2639 109.321C90.2393 109.344 90.1999 109.381 90.1461 109.43C90.0385 109.527 89.8741 109.67 89.6565 109.844C89.2209 110.193 88.5762 110.662 87.7539 111.132C86.1049 112.074 83.7762 113 81 113L81 115Z" fill="#000033"/>
</svg>
