<svg width="28" height="28" viewBox="0 0 28 28" fill="none" xmlns="http://www.w3.org/2000/svg">
<path fill-rule="evenodd" clip-rule="evenodd" d="M14 10.5C12.345 10.5 11 11.845 11 13.5C11 15.155 12.345 16.5 14 16.5C15.655 16.5 17 15.155 17 13.5C17 11.845 15.655 10.5 14 10.5ZM14 18.5C11.24 18.5 9 16.26 9 13.5C9 10.74 11.24 8.5 14 8.5C16.76 8.5 19 10.74 19 13.5C19 16.26 16.76 18.5 14 18.5ZM14 6C9 6 4.73 9.11 3 13.5C4.73 17.89 9 21 14 21C19 21 23.27 17.89 25 13.5C23.27 9.11 19.005 6 14 6Z" fill="black" fill-opacity="0.17"/>
</svg>
