<?xml version="1.0" encoding="UTF-8"?>
<svg width="28px" height="28px" viewBox="0 0 28 28" version="1.1" xmlns="http://www.w3.org/2000/svg" xmlns:xlink="http://www.w3.org/1999/xlink">
    <!-- Generator: Sketch 49 (51002) - http://www.bohemiancoding.com/sketch -->
    <title>x</title>
    <desc>Created with Sketch.</desc>
    <defs>
        <path d="M6,4 L22,4 C23.1045695,4 24,4.8954305 24,6 L24,22 C24,23.1045695 23.1045695,24 22,24 L6,24 C4.8954305,24 4,23.1045695 4,22 L4,6 C4,4.8954305 4.8954305,4 6,4 Z M19,17.585 L17.585,19 L14,15.415 L10.415,19 L9,17.585 L12.585,14 L9,10.415 L10.415,9 L14,12.585 L17.585,9 L19,10.415 L15.415,14 L19,17.585 Z" id="path-1"></path>
    </defs>
    <g id="x" stroke="none" stroke-width="1" fill="none" fill-rule="evenodd">
        <mask id="mask-2" fill="white">
            <use xlink:href="#path-1"></use>
        </mask>
        <use id="Mask" fill-opacity="0.87" fill="#000000" xlink:href="#path-1"></use>
    </g>
</svg>